#N canvas 58 65 1440 790 10;
#X floatatom 250 170 5 0 0 0 - - -, f 5;
#X obj 350 170 / 127;
#X obj 250 210 mtof;
#X floatatom 350 210 5 0 0 0 - - -, f 5;
#X obj 250 270 phasor~;
#X obj 300 340 *~;
#X obj 740 200 ctlin 22 1;
#X floatatom 240 240 5 0 0 0 - - -, f 5;
#X obj 290 110 notein;
#X obj 290 530 dac~;
#X obj 400 400 lpf;
#X obj 250 450 osc~ 440;
#X connect 0 0 2 0;
#X connect 1 0 3 0;
#X connect 2 0 7 0;
#X connect 3 0 5 1;
#X connect 4 0 5 0;
#X connect 7 0 4 0;
#X connect 8 0 0 0;
#X connect 8 1 1 0;
#X connect 11 0 9 0;
#X connect 11 0 9 1;
